<svg width="22" height="20" viewBox="0 0 22 20" fill="none" xmlns="http://www.w3.org/2000/svg">
<path d="M19 5H3C1.89543 5 1 5.89543 1 7V17C1 18.1046 1.89543 19 3 19H19C20.1046 19 21 18.1046 21 17V7C21 5.89543 20.1046 5 19 5Z" stroke="black" stroke-linecap="round" stroke-linejoin="round"/>
<path d="M15 19V3C15 2.46957 14.7893 1.96086 14.4142 1.58579C14.0391 1.21071 13.5304 1 13 1H9C8.46957 1 7.96086 1.21071 7.58579 1.58579C7.21071 1.96086 7 2.46957 7 3V19" stroke="black" stroke-linecap="round" stroke-linejoin="round"/>
</svg>
