<svg width="22" height="22" viewBox="0 0 22 22" fill="none" xmlns="http://www.w3.org/2000/svg">
<path d="M14.6857 8.88615H15.7911C16.9545 8.88615 18.0702 9.35426 18.8928 10.1875C19.7154 11.0207 20.1775 12.1509 20.1775 13.3292C20.1775 14.5076 19.7154 15.6377 18.8928 16.471C18.0702 17.3042 16.9545 17.7723 15.7911 17.7723H7.89556C6.58268 17.7733 5.29586 17.4013 4.1813 16.6985C3.06674 15.9957 2.16914 14.9903 1.5905 13.7966C1.01185 12.6029 0.775366 11.2687 0.907908 9.94569C1.04045 8.62265 1.53671 7.36379 2.34029 6.31216C3.14387 5.26053 4.22256 4.45829 5.45377 3.99661C6.68499 3.53493 8.01937 3.43231 9.30529 3.70042C10.5912 3.96853 11.7771 4.59662 12.7282 5.51331C13.6793 6.43 14.3575 7.59854 14.6857 8.88615Z" stroke="black" stroke-linecap="round" stroke-linejoin="round"/>
</svg>
