<svg width="100" height="100" viewBox="0 0 100 100" fill="none" xmlns="http://www.w3.org/2000/svg">
<g clip-path="url(#clip0_316_126)">
<circle cx="1.5" cy="1.5" r="1.5" fill="black"/>
<circle cx="14.5" cy="1.5" r="1.5" fill="black"/>
<circle cx="27.5" cy="1.5" r="1.5" fill="black"/>
<circle cx="40.5" cy="1.5" r="1.5" fill="black"/>
<circle cx="53.5" cy="1.5" r="1.5" fill="black"/>
<circle cx="66.5" cy="1.5" r="1.5" fill="black"/>
<circle cx="79.5" cy="1.5" r="1.5" fill="black"/>
<circle cx="92.5" cy="1.5" r="1.5" fill="black"/>
<circle cx="1.5" cy="14.5" r="1.5" fill="black"/>
<circle cx="14.5" cy="14.5" r="1.5" fill="black"/>
<circle cx="27.5" cy="14.5" r="1.5" fill="black"/>
<circle cx="40.5" cy="14.5" r="1.5" fill="black"/>
<circle cx="53.5" cy="14.5" r="1.5" fill="black"/>
<circle cx="66.5" cy="14.5" r="1.5" fill="black"/>
<circle cx="79.5" cy="14.5" r="1.5" fill="black"/>
<circle cx="92.5" cy="14.5" r="1.5" fill="black"/>
<circle cx="1.5" cy="27.5" r="1.5" fill="black"/>
<circle cx="14.5" cy="27.5" r="1.5" fill="black"/>
<circle cx="27.5" cy="27.5" r="1.5" fill="black"/>
<circle cx="40.5" cy="27.5" r="1.5" fill="black"/>
<circle cx="53.5" cy="27.5" r="1.5" fill="black"/>
<circle cx="66.5" cy="27.5" r="1.5" fill="black"/>
<circle cx="79.5" cy="27.5" r="1.5" fill="black"/>
<circle cx="92.5" cy="27.5" r="1.5" fill="black"/>
<circle cx="1.5" cy="40.5" r="1.5" fill="black"/>
<circle cx="14.5" cy="40.5" r="1.5" fill="black"/>
<circle cx="27.5" cy="40.5" r="1.5" fill="black"/>
<circle cx="40.5" cy="40.5" r="1.5" fill="black"/>
<circle cx="53.5" cy="40.5" r="1.5" fill="black"/>
<circle cx="66.5" cy="40.5" r="1.5" fill="black"/>
<circle cx="79.5" cy="40.5" r="1.5" fill="black"/>
<circle cx="92.5" cy="40.5" r="1.5" fill="black"/>
<circle cx="1.5" cy="53.5" r="1.5" fill="black"/>
<circle cx="14.5" cy="53.5" r="1.5" fill="black"/>
<circle cx="27.5" cy="53.5" r="1.5" fill="black"/>
<circle cx="40.5" cy="53.5" r="1.5" fill="black"/>
<circle cx="53.5" cy="53.5" r="1.5" fill="black"/>
<circle cx="66.5" cy="53.5" r="1.5" fill="black"/>
<circle cx="79.5" cy="53.5" r="1.5" fill="black"/>
<circle cx="92.5" cy="53.5" r="1.5" fill="black"/>
<circle cx="1.5" cy="66.5" r="1.5" fill="black"/>
<circle cx="14.5" cy="66.5" r="1.5" fill="black"/>
<circle cx="27.5" cy="66.5" r="1.5" fill="black"/>
<circle cx="40.5" cy="66.5" r="1.5" fill="black"/>
<circle cx="53.5" cy="66.5" r="1.5" fill="black"/>
<circle cx="66.5" cy="66.5" r="1.5" fill="black"/>
<circle cx="79.5" cy="66.5" r="1.5" fill="black"/>
<circle cx="92.5" cy="66.5" r="1.5" fill="black"/>
<circle cx="1.5" cy="79.5" r="1.5" fill="black"/>
<circle cx="14.5" cy="79.5" r="1.5" fill="black"/>
<circle cx="27.5" cy="79.5" r="1.5" fill="black"/>
<circle cx="40.5" cy="79.5" r="1.5" fill="black"/>
<circle cx="53.5" cy="79.5" r="1.5" fill="black"/>
<circle cx="66.5" cy="79.5" r="1.5" fill="black"/>
<circle cx="79.5" cy="79.5" r="1.5" fill="black"/>
<circle cx="92.5" cy="79.5" r="1.5" fill="black"/>
<circle cx="1.5" cy="92.5" r="1.5" fill="black"/>
<circle cx="14.5" cy="92.5" r="1.5" fill="black"/>
<circle cx="27.5" cy="92.5" r="1.5" fill="black"/>
<circle cx="40.5" cy="92.5" r="1.5" fill="black"/>
<circle cx="53.5" cy="92.5" r="1.5" fill="black"/>
<circle cx="66.5" cy="92.5" r="1.5" fill="black"/>
<circle cx="79.5" cy="92.5" r="1.5" fill="black"/>
<circle cx="92.5" cy="92.5" r="1.5" fill="black"/>
</g>
<defs>
<clipPath id="clip0_316_126">
<rect width="100" height="100" fill="white"/>
</clipPath>
</defs>
</svg>
