<svg width="24" height="24" viewBox="0 0 24 24" fill="none" xmlns="http://www.w3.org/2000/svg">
<path d="M18 20.9995C19.6569 20.9995 21 19.6564 21 17.9995C21 16.3427 19.6569 14.9995 18 14.9995C16.3431 14.9995 15 16.3427 15 17.9995C15 19.6564 16.3431 20.9995 18 20.9995Z" stroke="black" stroke-linecap="round" stroke-linejoin="round"/>
<path d="M6 8.99951C7.65685 8.99951 9 7.65637 9 5.99951C9 4.34266 7.65685 2.99951 6 2.99951C4.34315 2.99951 3 4.34266 3 5.99951C3 7.65637 4.34315 8.99951 6 8.99951Z" stroke="black" stroke-linecap="round" stroke-linejoin="round"/>
<path d="M13 5.99951H16C16.5304 5.99951 17.0391 6.21023 17.4142 6.5853C17.7893 6.96037 18 7.46908 18 7.99951V14.9995" stroke="black" stroke-linecap="round" stroke-linejoin="round"/>
<path d="M6 8.99951V20.9995" stroke="black" stroke-linecap="round" stroke-linejoin="round"/>
</svg>
