<svg width="22" height="22" viewBox="0 0 22 22" fill="none" xmlns="http://www.w3.org/2000/svg">
<path d="M17.5457 1.77734H3.50913C2.54011 1.77734 1.75456 2.57304 1.75456 3.55458V7.10905C1.75456 8.09059 2.54011 8.88628 3.50913 8.88628H17.5457C18.5147 8.88628 19.3003 8.09059 19.3003 7.10905V3.55458C19.3003 2.57304 18.5147 1.77734 17.5457 1.77734Z" stroke="black" stroke-linecap="round" stroke-linejoin="round"/>
<path d="M17.5457 12.4407H3.50913C2.54011 12.4407 1.75456 13.2364 1.75456 14.2179V17.7724C1.75456 18.7539 2.54011 19.5496 3.50913 19.5496H17.5457C18.5147 19.5496 19.3003 18.7539 19.3003 17.7724V14.2179C19.3003 13.2364 18.5147 12.4407 17.5457 12.4407Z" stroke="black" stroke-linecap="round" stroke-linejoin="round"/>
<path d="M5.2637 5.33179H5.27248" stroke="black" stroke-width="2" stroke-linecap="round" stroke-linejoin="round"/>
<path d="M5.2637 15.9951H5.27248" stroke="black" stroke-width="2" stroke-linecap="round" stroke-linejoin="round"/>
</svg>
