<?xml version="1.0" encoding="iso-8859-1"?>
<!-- Generator: Adobe Illustrator 19.0.0, SVG Export Plug-In . SVG Version: 6.00 Build 0)  -->
<svg version="1.1" id="Layer_1" xmlns="http://www.w3.org/2000/svg" xmlns:xlink="http://www.w3.org/1999/xlink" x="0px" y="0px"
	 viewBox="0 0 512 512" style="enable-background:new 0 0 512 512;" xml:space="preserve">
<g>
	<g>
		<path d="M499.2,307.2h-12.8V25.6h12.8c7.074,0,12.8-5.726,12.8-12.8C512,5.726,506.274,0,499.2,0H12.8C5.726,0,0,5.726,0,12.8
			c0,7.074,5.726,12.8,12.8,12.8h12.8v281.6H12.8C5.726,307.2,0,312.926,0,320c0,7.074,5.726,12.8,12.8,12.8h230.4v45.901
			L131.755,490.146c-5.001,5.009-5.001,13.099,0,18.099c5,5.001,13.099,5.001,18.099,0l93.346-93.346V499.2
			c0,7.074,5.726,12.8,12.8,12.8c7.074,0,12.8-5.726,12.8-12.8v-84.301l93.346,93.346c5.001,5.001,13.099,5.001,18.099,0
			c5-5,5-13.099,0-18.099L268.8,378.701V332.8h230.4c7.074,0,12.8-5.726,12.8-12.8C512,312.926,506.274,307.2,499.2,307.2z
			 M460.8,307.2H51.2V25.6h409.6V307.2z"/>
	</g>
</g>
<g>
	<g>
		<rect x="115.2" y="230.4" width="281.6" height="25.6"/>
	</g>
</g>
<g>
	<g>
		<rect x="166.4" y="153.6" width="25.6" height="51.2"/>
	</g>
</g>
<g>
	<g>
		<rect x="217.6" y="128" width="25.6" height="76.8"/>
	</g>
</g>
<g>
	<g>
		<rect x="268.8" y="102.4" width="25.6" height="102.4"/>
	</g>
</g>
<g>
	<g>
		<rect x="320" y="76.8" width="25.6" height="128"/>
	</g>
</g>
<g>
</g>
<g>
</g>
<g>
</g>
<g>
</g>
<g>
</g>
<g>
</g>
<g>
</g>
<g>
</g>
<g>
</g>
<g>
</g>
<g>
</g>
<g>
</g>
<g>
</g>
<g>
</g>
<g>
</g>
</svg>
