<svg width="20" height="20" viewBox="0 0 20 20" fill="none" xmlns="http://www.w3.org/2000/svg">
<path d="M5 1.66666H11.6667L16.6667 6.66666V16.6667C16.6667 17.1087 16.4911 17.5326 16.1785 17.8452C15.8659 18.1577 15.442 18.3333 15 18.3333H5C4.55797 18.3333 4.13405 18.1577 3.82149 17.8452C3.50893 17.5326 3.33333 17.1087 3.33333 16.6667V3.33332C3.33333 2.8913 3.50893 2.46737 3.82149 2.15481C4.13405 1.84225 4.55797 1.66666 5 1.66666Z" stroke="black" stroke-linecap="round" stroke-linejoin="round"/>
<path d="M11.6667 1.66666V6.66666H16.6667" stroke="black" stroke-linecap="round" stroke-linejoin="round"/>
<path d="M13.3333 10.8333H6.66667" stroke="black" stroke-linecap="round" stroke-linejoin="round"/>
<path d="M13.3333 14.1667H6.66667" stroke="black" stroke-linecap="round" stroke-linejoin="round"/>
<path d="M8.33333 7.5H7.5H6.66667" stroke="black" stroke-linecap="round" stroke-linejoin="round"/>
</svg>
