<svg width="19" height="19" viewBox="0 0 19 19" fill="none" xmlns="http://www.w3.org/2000/svg">
<path d="M11.0146 5.44632C11.0146 5.21372 11.1046 4.9904 11.2654 4.82429L11.2742 4.8154L14.5727 1.4742C13.5979 1.02738 12.5118 0.892084 11.4591 1.08636C10.4065 1.28063 9.43726 1.79525 8.68066 2.56162C7.92406 3.328 7.41601 4.30973 7.22421 5.37599C7.03241 6.44225 7.16598 7.5424 7.60711 8.52982L1.54507 14.6702C1.19607 15.0237 1 15.5031 1 16.0031C1 16.503 1.19607 16.9825 1.54507 17.336C1.89408 17.6895 2.36743 17.8881 2.861 17.8881C3.35457 17.8881 3.82792 17.6895 4.17693 17.336L10.239 11.1957C11.2138 11.6425 12.2999 11.7778 13.3526 11.5835C14.4052 11.3892 15.3744 10.8746 16.131 10.1083C16.8876 9.34188 17.3957 8.36015 17.5875 7.29389C17.7793 6.22763 17.6457 5.12748 17.2046 4.14006L13.8972 7.49014C13.7332 7.65296 13.5128 7.74416 13.2831 7.74416C13.0535 7.74416 12.833 7.65296 12.669 7.49014L11.2654 6.06835C11.1046 5.90225 11.0146 5.67892 11.0146 5.44632Z" stroke="black" stroke-linecap="round" stroke-linejoin="round"/>
</svg>
